<svg xmlns:dc="http://purl.org/dc/elements/1.1/" xmlns:cc="http://creativecommons.org/ns#" xmlns:rdf="http://www.w3.org/1999/02/22-rdf-syntax-ns#" xmlns:svg="http://www.w3.org/2000/svg" xmlns="http://www.w3.org/2000/svg" xmlns:sodipodi="http://sodipodi.sourceforge.net/DTD/sodipodi-0.dtd" xmlns:inkscape="http://www.inkscape.org/namespaces/inkscape" viewBox="0 0 812.50006 764.0625625" version="1.1" x="0px" y="0px"><g transform="translate(-290.30702,-212.15503)"><path style="" d="m 290.30699,773.40507 0,-50 406.25003,0 406.25008,0 0,50 0,50 -406.25008,0 -406.25003,0 0,-50 z m 0,-255.00002 0,-50 406.25003,0 406.25008,0 0,50 0,50 -406.25008,0 -406.25003,0 0,-50 z m 0,-256.25002 0,-50 406.25003,0 406.25008,0 0,50 0,50 -406.25008,0 -406.25003,0 0,-50 z" fill="#000000"/></g><text x="0" y="626.25005" fill="#000000" font-size="5px" font-weight="bold" font-family="'Helvetica Neue', Helvetica, Arial-Unicode, Arial, Sans-serif">Created by JeraOcean</text><text x="0" y="631.25005" fill="#000000" font-size="5px" font-weight="bold" font-family="'Helvetica Neue', Helvetica, Arial-Unicode, Arial, Sans-serif">from the Noun Project</text></svg>